<svg viewBox="0 0 20 20" fill="currentColor" xmlns="http://www.w3.org/2000/svg">
<path fill-rule="evenodd" clip-rule="evenodd" d="M6.14019 2.16406C6.14942 2.16406 6.15868 2.16406 6.16797 2.16406L13.8624 2.16406C14.1887 2.16405 14.4774 2.16403 14.7167 2.18359C14.9715 2.2044 15.2356 2.25108 15.4926 2.38205C15.8689 2.5738 16.1749 2.87976 16.3666 3.25608C16.4976 3.51313 16.5443 3.77717 16.5651 4.03199C16.5847 4.27129 16.5847 4.56003 16.5846 4.88628L16.5846 17.9141C16.5846 18.185 16.4385 18.4348 16.2025 18.5677C15.9664 18.7005 15.677 18.6957 15.4454 18.5552L10.0013 15.2498L4.5572 18.5552C4.32564 18.6957 4.03625 18.7005 3.80016 18.5677C3.56406 18.4348 3.41797 18.185 3.41797 17.9141V4.91406C3.41797 4.90477 3.41797 4.89552 3.41797 4.88629C3.41795 4.56003 3.41794 4.27129 3.43749 4.03199C3.45831 3.77717 3.50499 3.51313 3.63596 3.25608C3.8277 2.87976 4.13367 2.5738 4.50999 2.38205C4.76704 2.25108 5.03108 2.2044 5.2859 2.18359C5.52519 2.16403 5.81394 2.16405 6.14019 2.16406ZM5.40805 3.6786C5.24599 3.69184 5.20132 3.71329 5.19098 3.71856C5.09689 3.7665 5.0204 3.84299 4.97247 3.93707C4.9672 3.94741 4.94575 3.99208 4.93251 4.15414C4.91855 4.32496 4.91797 4.55166 4.91797 4.91406V16.5813L9.61207 13.7313C9.85124 13.5861 10.1514 13.5861 10.3905 13.7313L15.0846 16.5813V4.91406C15.0846 4.55166 15.0841 4.32496 15.0701 4.15414C15.0569 3.99208 15.0354 3.94741 15.0301 3.93707C14.9822 3.84299 14.9057 3.7665 14.8116 3.71856C14.8013 3.71329 14.7566 3.69184 14.5946 3.6786C14.4237 3.66465 14.197 3.66406 13.8346 3.66406H6.16797C5.80556 3.66406 5.57886 3.66465 5.40805 3.6786Z" fill="currentColor"/>
</svg>
