<svg viewBox="0 0 20 20" fill="currentColor" xmlns="http://www.w3.org/2000/svg">
<path fill-rule="evenodd" clip-rule="evenodd" d="M6.16406 2.16406H6.13629H6.13625C5.81001 2.16405 5.52128 2.16404 5.28199 2.18359C5.02717 2.20441 4.76313 2.25108 4.50608 2.38205C4.12976 2.5738 3.8238 2.87976 3.63205 3.25608C3.50108 3.51313 3.45441 3.77717 3.43359 4.03199C3.41404 4.27128 3.41405 4.56001 3.41406 4.88625V4.88629V4.91406V17.9141C3.41406 18.185 3.56016 18.4348 3.79625 18.5677C4.03234 18.7005 4.32173 18.6957 4.5533 18.5552L9.9974 15.2498L15.4415 18.5552C15.6731 18.6957 15.9625 18.7005 16.1985 18.5677C16.4346 18.4348 16.5807 18.185 16.5807 17.9141L16.5807 4.88628V4.8862C16.5807 4.55998 16.5808 4.27127 16.5612 4.03199C16.5404 3.77717 16.4937 3.51313 16.3627 3.25608C16.171 2.87976 15.865 2.5738 15.4887 2.38205C15.2317 2.25108 14.9676 2.20441 14.7128 2.18359C14.4735 2.16404 14.1848 2.16405 13.8585 2.16406H13.8585H6.16406Z" fill="currentColor"/>
</svg>
